<svg xmlns="http://www.w3.org/2000/svg" width="17.539" height="17.539" viewBox="0 0 17.539 17.539"><defs><style>.a{fill:#f69661;}</style></defs><path class="a" d="M8.769,0a8.769,8.769,0,1,0,8.769,8.769A8.769,8.769,0,0,0,8.769,0Zm0,16.286a7.517,7.517,0,1,1,7.517-7.517A7.525,7.525,0,0,1,8.769,16.286Z"/><path class="a" d="M405.418,402.286h-3.132v.626h.626v5.637h-.626v.626h3.758v-.626h-.626Z" transform="translate(-395.396 -395.396)"/><path class="a" d="M440.11,202.4m-1.253,0a1.253,1.253,0,1,0,1.253-1.253A1.253,1.253,0,0,0,438.857,202.4Z" transform="translate(-431.34 -197.698)"/></svg>