<svg xmlns="http://www.w3.org/2000/svg" width="14.698" height="14.698" viewBox="0 0 14.698 14.698"><defs><style>.a{fill:#ffb443;}</style></defs><path class="a" d="M5.512,0H1.1A1.1,1.1,0,0,0,0,1.1V5.512a1.1,1.1,0,0,0,1.1,1.1H5.512a1.1,1.1,0,0,0,1.1-1.1V1.1A1.1,1.1,0,0,0,5.512,0ZM13.6,0H9.186a1.1,1.1,0,0,0-1.1,1.1V5.512a1.1,1.1,0,0,0,1.1,1.1H13.6a1.1,1.1,0,0,0,1.1-1.1V1.1A1.1,1.1,0,0,0,13.6,0ZM5.512,8.084H1.1A1.1,1.1,0,0,0,0,9.186V13.6a1.1,1.1,0,0,0,1.1,1.1H5.512a1.1,1.1,0,0,0,1.1-1.1V9.186a1.1,1.1,0,0,0-1.1-1.1Zm9.05,5.831-.9-.9a3.316,3.316,0,1,0-.65.65l.9.9a.457.457,0,1,0,.647-.647Zm-3.538-.5a2.388,2.388,0,1,1,2.388-2.388,2.388,2.388,0,0,1-2.388,2.388Z" transform="translate(0)"/></svg>