<svg xmlns="http://www.w3.org/2000/svg" width="12.27" height="12" viewBox="0 0 12.27 12"><defs><style>.a{fill:#b6b6b6;}</style></defs><path class="a" d="M108.08,145.495a1.368,1.368,0,0,0-1.3-1.426H97.108a1.368,1.368,0,0,0-1.3,1.426v9.149a1.368,1.368,0,0,0,1.3,1.425h9.673a1.367,1.367,0,0,0,1.3-1.425v-1.106s0,0,0-.006Zm-.814,8.046v1.033a.576.576,0,0,1-.547.6H97.172a.577.577,0,0,1-.549-.6v-9.009a.578.578,0,0,1,.549-.6h9.546a.576.576,0,0,1,.547.6Z" transform="translate(-95.81 -144.069)"/><path class="a" d="M238.606,392.9l-2.717,3.147-1.928-1.424a.419.419,0,0,0-.306-.129h-.044a.422.422,0,0,0-.313.139l-1.951,2.719a.467.467,0,0,0,0,.639.423.423,0,0,0,.307.132.429.429,0,0,0,.315-.142l1.752-2.442,1.916,1.415a.431.431,0,0,0,.326.131.422.422,0,0,0,.309-.134l2.95-3.416a.462.462,0,0,0,0-.639A.429.429,0,0,0,238.606,392.9Z" transform="translate(-229.156 -388.475)"/><path class="a" d="M298.234,302.4a1.162,1.162,0,1,0-1.162-1.162A1.164,1.164,0,0,0,298.234,302.4Zm0-1.5a.341.341,0,1,1-.34.341A.341.341,0,0,1,298.234,300.9Z" transform="translate(-294.102 -297.489)"/></svg>