<svg xmlns="http://www.w3.org/2000/svg" width="20.502" height="19.683" viewBox="0 0 20.502 19.683"><defs><style>.a{fill:#ffc7ce;}.b{fill:#ff6073;}.c{fill:#fff;}</style></defs><g transform="translate(-7.618 -25.566)"><path class="a" d="M10.187,123.227l-2.514,6.327a.777.777,0,0,0,.05.677L13.364,140a.777.777,0,0,0,1.062.285l9.251-5.341a.777.777,0,0,0,.284-1.062l-5.642-9.772a.777.777,0,0,0-.561-.381l-6.736-.986a.777.777,0,0,0-.835.482Z" transform="translate(0 -95.255)"/><path class="b" d="M144.494,26.077l-2.542,7a.774.774,0,0,0,.058.654l6.426,11.131a.777.777,0,0,0,1.062.284l9.874-5.7a.777.777,0,0,0,.284-1.062l-6.426-11.131a.777.777,0,0,0-.538-.377l-7.331-1.3A.777.777,0,0,0,144.494,26.077Z" transform="translate(-131.639 0)"/><path class="c" d="M366.916,184.358m-1.8,0a1.8,1.8,0,1,0,1.8-1.8A1.8,1.8,0,0,0,365.117,184.358Z" transform="translate(-350.451 -153.898)"/></g></svg>