<svg xmlns="http://www.w3.org/2000/svg" xmlns:xlink="http://www.w3.org/1999/xlink" width="137.041" height="137.041" viewBox="0 0 137.041 137.041"><defs><style>.a,.b,.c,.d,.e,.f,.g{fill-rule:evenodd;}.a{fill:url(#a);}.b{fill:url(#b);}.c{fill:url(#c);}.d{fill:#9bbbf7;}.e{fill:url(#d);}.f{fill:#bed5ff;}.g{fill:#fff;}</style><linearGradient id="a" x1="0.5" x2="0.51" y2="1" gradientUnits="objectBoundingBox"><stop offset="0" stop-color="#fff" stop-opacity="0"/><stop offset="1" stop-color="#e7f0ff"/></linearGradient><linearGradient id="b" x1="0.5" x2="0.51" y2="1" gradientUnits="objectBoundingBox"><stop offset="0" stop-color="#dfeaff"/><stop offset="1" stop-color="#80abff"/></linearGradient><linearGradient id="c" x1="0.5" x2="0.51" y2="1" gradientUnits="objectBoundingBox"><stop offset="0" stop-color="#bed5ff"/><stop offset="1" stop-color="#edf2ff"/></linearGradient><linearGradient id="d" x1="0.5" x2="0.51" y2="1" gradientUnits="objectBoundingBox"><stop offset="0" stop-color="#94baff"/><stop offset="1" stop-color="#a7c5ff"/></linearGradient></defs><g transform="translate(0 0)"><path class="a" d="M68.52,0a68.52,68.52,0,1,0,68.52,68.52A68.523,68.523,0,0,0,68.52,0Z"/></g><g transform="translate(37.352 22.743)"><path class="b" d="M65.973,100.505l-.014.014-.024.034c-.079.1-.158.207-.234.313l-.017.024-.007.014c-.076.1-.145.21-.21.317l-.021.034-.028.045c-.059.09-.114.182-.169.275l-.021.034-.007.01c-.062.1-.117.21-.176.313l-.017.031-.024.052c-.045.083-.09.169-.127.251l-.028.052-.014.028c-.052.107-.1.213-.148.32l-.007.017-.017.041c-.041.093-.079.189-.114.282l-.021.052-.014.038c-.045.114-.086.231-.124.348v.01l-.01.028q-.057.176-.1.351a.223.223,0,0,1-.014.045l0,.024c-.038.138-.072.279-.107.417a.147.147,0,0,1-.007.038c0,.01-.007.034-.01.052a1.223,1.223,0,0,0-.031.162l-.021.114c-.01.059-.021.114-.028.169a.55.55,0,0,1-.01.079v.021c-.017.121-.028.241-.038.358v.076q-.01.181-.01.362l.093,33.121a2.907,2.907,0,0,0,1.219,2.675l10.23,5.943a2.918,2.918,0,0,1-1.219-2.675l-.1-33.121a3.172,3.172,0,0,1,.014-.362v-.076c.007-.121.017-.238.034-.358,0-.034.01-.065.014-.1.007-.059.014-.114.024-.169.007-.038.014-.076.021-.117s.021-.1.031-.162l.021-.09c.031-.138.065-.275.1-.417l.017-.065c.034-.117.069-.234.107-.351l.01-.041c.041-.114.083-.231.127-.348l.031-.086c.038-.093.076-.186.117-.282l.024-.059c.048-.107.1-.213.148-.32l.038-.079c.041-.086.083-.169.127-.251l.045-.083c.055-.1.114-.21.172-.313l.028-.045c.055-.093.11-.186.169-.275l.052-.079.207-.32.028-.038c.076-.107.155-.21.234-.31l.038-.052c.1-.127.2-.251.306-.372l.045-.055c.059-.069.117-.134.179-.2l.031-.034c.069-.076.141-.148.213-.22l.045-.041c.093-.09.189-.179.286-.265l.031-.028c.1-.09.207-.172.306-.255l.059-.048c.1-.076.207-.151.313-.224l.055-.038c.11-.072.22-.141.334-.207l43.96-25.38a2.853,2.853,0,0,1,.265-.141l.079-.038c.069-.034.134-.065.2-.093l.072-.031c.062-.028.127-.052.189-.072l.041-.014q.114-.041.227-.072l.127-.031.065-.014a1.811,1.811,0,0,1,.179-.034h.014a2.546,2.546,0,0,1,.279-.028h.341a1.676,1.676,0,0,1,.189.021l.059.01a2.069,2.069,0,0,1,.21.048h.01a1.755,1.755,0,0,1,.189.065l.052.021a1.621,1.621,0,0,1,.155.076l.052.028-10.226-5.943-.024-.01-.028-.014a1.6,1.6,0,0,0-.155-.076l-.028-.014-.028-.01a1.475,1.475,0,0,0-.186-.065h-.01a2.069,2.069,0,0,0-.21-.048l-.024-.007h-.034a1.705,1.705,0,0,0-.186-.021h-.341a1.959,1.959,0,0,0-.282.028h-.014c-.059.01-.117.021-.179.034l-.065.014-.114.031h-.014c-.072.021-.152.041-.227.069l-.041.014-.189.072-.024.01-.045.021a1.826,1.826,0,0,0-.2.093l-.076.038c-.09.045-.179.09-.269.145L68.177,98.522c-.114.062-.224.134-.334.207l-.055.038c-.1.069-.21.141-.313.224l-.059.048c-.1.079-.207.165-.306.251l-.031.028c-.1.086-.193.176-.286.269l-.028.024-.017.017c-.069.069-.141.141-.213.22l-.031.031-.179.2-.021.024-.024.031C66.173,100.254,66.073,100.378,65.973,100.505Z" transform="translate(-64 -54.142)"/><path class="c" d="M97.851,115.756a9.2,9.2,0,0,0-4.19,7.231l.093,33.121c.007,2.655,1.9,3.719,4.218,2.379L141.938,133.1a9.212,9.212,0,0,0,4.19-7.234l-.093-33.121c-.007-2.651-1.894-3.719-4.218-2.379Z" transform="translate(-83.447 -65.433)"/><path class="d" d="M182.148,60.148l.024,8.632-5.113-2.972-.024-8.632c-.01-3.337-1.188-5.674-3.085-6.776l5.113,2.972c1.9,1.109,3.075,3.45,3.085,6.776Zm-8.2-9.748Z" transform="translate(-136.092 -39.605)"/><path class="e" d="M93.644,41.452l.021-.045c.1-.238.2-.475.313-.713l.072-.158c.09-.189.179-.382.269-.575l.055-.11.038-.076c.114-.234.227-.468.344-.7l.034-.069c.107-.213.217-.427.327-.634l.048-.093.055-.1c.11-.2.217-.406.331-.606l.055-.1c.127-.231.258-.458.389-.685l.038-.069.062-.1c.117-.193.231-.389.348-.582l.086-.141c.141-.227.282-.455.427-.682l.034-.052.059-.093c.134-.21.269-.417.41-.627l.079-.124c.158-.231.313-.461.475-.689l.045-.065.059-.083c.179-.251.358-.5.541-.751l.021-.028q.269-.367.547-.723l.062-.083.034-.041c.21-.275.427-.547.647-.813l.1-.117q.325-.4.661-.785l.055-.062.076-.086.313-.351.145-.162c.152-.165.3-.331.455-.492l.007-.007c.155-.165.31-.327.465-.489l.148-.148.331-.331.076-.079.069-.062c.21-.21.424-.413.637-.613l.072-.069c.21-.193.417-.382.627-.568l.086-.076c.22-.189.437-.379.658-.561l.131-.1c.22-.182.444-.362.665-.534l.107-.079c.22-.172.441-.337.665-.5l.055-.041c.231-.169.461-.331.7-.489l.134-.09c.227-.155.455-.3.685-.451l.124-.076c.244-.152.485-.3.73-.437l2.806-1.622c.2-.117.389-.22.585-.324l.165-.09q.222-.119.444-.227l.155-.079c.189-.093.379-.186.568-.272l.09-.038c.162-.072.324-.141.482-.21l.079-.034.107-.041c.107-.045.217-.09.327-.131l.186-.072c.121-.045.241-.086.358-.131l.148-.052c.169-.059.334-.11.5-.162l.072-.021q.212-.067.424-.124l.045-.014.2-.048.176-.048c.093-.021.179-.041.269-.059l.155-.038.32-.062.1-.021c.138-.024.272-.048.406-.069h.007c.207-.031.406-.055.616-.079l.124-.01c.2-.021.393-.034.589-.045h.11c.158,0,.313-.007.468-.007h.107c.176,0,.351.007.527.017h.041l.079.01c.131.007.269.021.41.034l.11.014c.165.017.327.041.485.069h.031l.069.014c.127.024.255.048.379.076l.127.031c.152.034.3.072.455.117l.024.007c.141.041.279.086.417.131l.124.045.351.134.062.024.021.01c.141.055.279.121.417.189l.107.048c.107.055.217.114.32.172l.069.034.1.059,5.117,2.972c-.052-.031-.107-.059-.158-.086-.107-.059-.213-.117-.324-.169l-.1-.052c-.138-.065-.279-.127-.417-.189l-.083-.031c-.117-.048-.234-.093-.351-.138l-.124-.041c-.138-.048-.275-.093-.417-.134l-.031-.01c-.148-.041-.3-.079-.451-.117l-.127-.028c-.124-.028-.251-.052-.379-.076l-.1-.021c-.158-.024-.32-.048-.485-.069l-.11-.01c-.134-.017-.272-.028-.41-.038l-.121-.01c-.176-.01-.351-.017-.53-.017h-.1c-.155,0-.31,0-.468.01h-.11q-.294.01-.589.041l-.124.014c-.2.021-.41.045-.616.076q-.207.031-.413.072l-.1.017c-.11.021-.217.041-.32.065l-.155.034-.269.062-.176.045-.241.062q-.217.062-.424.124l-.072.021c-.165.052-.331.107-.5.162l-.148.055c-.121.041-.238.083-.355.127l-.189.072c-.11.045-.22.086-.327.131l-.182.079q-.243.1-.485.207l-.09.041c-.189.086-.379.176-.568.272l-.155.076c-.148.072-.293.148-.441.227l-.165.086c-.2.1-.389.213-.585.324l-2.8,1.622c-.248.141-.489.286-.73.437l-.124.076c-.231.148-.461.3-.689.448l-.134.093c-.234.158-.465.32-.7.485l-.055.045c-.224.162-.444.327-.665.5l-.1.079c-.224.172-.448.351-.665.534l-.134.1c-.22.182-.437.368-.658.561l-.086.076c-.21.186-.417.375-.627.568l-.072.069c-.217.2-.43.4-.637.609l-.145.145c-.11.107-.22.217-.327.331l-.148.148c-.158.162-.313.324-.468.489l-.007.007c-.152.162-.3.327-.451.492l-.148.162c-.107.117-.21.234-.313.351l-.131.148q-.336.387-.661.785l-.1.114c-.217.265-.434.537-.647.816l-.1.124q-.279.356-.547.723l-.017.028c-.186.248-.365.5-.544.751l-.1.148c-.162.227-.317.458-.475.692l-.079.121c-.138.21-.275.417-.41.627l-.093.148c-.145.224-.289.451-.427.682L101.57,39c-.117.193-.234.386-.348.578l-.1.176c-.131.224-.262.455-.389.682l-.055.107c-.114.2-.22.4-.331.6l-.1.193c-.11.213-.22.427-.331.634l-.031.069c-.121.231-.234.465-.348.7l-.09.189c-.093.189-.182.382-.272.575l-.072.158c-.107.234-.21.472-.313.709l-.065.152c-.086.2-.172.4-.255.606l-.076.186c-.1.241-.2.486-.289.73l-.041.1c-.086.227-.172.455-.255.685l-.062.179c-.093.255-.182.51-.265.764l-.038.114c-.083.255-.165.51-.244.768l-.041.134c-.083.272-.162.547-.238.819l-.045.162c-.086.306-.165.616-.241.926l-.031.127c-.079.317-.152.637-.22.957-.01.059-.021.114-.034.172-.031.145-.059.286-.086.43-.017.076-.028.152-.045.227-.021.127-.045.255-.069.379l-.041.248c-.021.121-.038.238-.059.358-.01.086-.024.172-.038.255-.017.117-.034.234-.048.355-.01.072-.021.145-.031.22-.034.265-.065.53-.09.792,0,.041-.01.079-.01.117-.024.244-.045.486-.062.73,0,.045-.007.09-.007.134-.017.262-.031.52-.038.778v.169c-.014.265-.014.53-.014.792l.021,8.636-5.113-2.972L90.59,54.97c0-.262,0-.527.01-.792v-.165c.01-.258.024-.52.041-.778,0-.045.007-.093.007-.138.017-.241.038-.485.062-.73,0-.038.01-.076.01-.114.024-.265.055-.53.09-.8a.624.624,0,0,0,.01-.079c0-.048.014-.093.017-.141l.052-.351c.014-.086.024-.172.038-.255.021-.121.038-.241.059-.362.014-.079.028-.162.041-.244.021-.127.045-.255.069-.379.014-.076.028-.155.045-.231.024-.141.055-.286.086-.427.01-.055.017-.107.031-.158v-.017c.065-.32.141-.637.217-.957.01-.041.021-.083.031-.127.076-.306.158-.616.241-.926.007-.028.017-.059.024-.083s.014-.052.021-.079q.114-.408.238-.816l.045-.138c.076-.255.158-.51.244-.768l.024-.076.01-.034c.086-.255.176-.51.265-.764l.065-.179c.083-.231.169-.458.255-.685l.028-.079.01-.024c.1-.244.193-.489.293-.73l.076-.186c.083-.2.169-.4.255-.606Zm36.333-18.187s-.007,0-.01-.007Z" transform="translate(-81.434 -19.05)"/><path class="f" d="M123.83,40.812l2.806-1.622c5.826-3.361,10.581-.654,10.6,6.039l.028,8.629,7.847-4.531-.024-8.632c-.034-11.669-8.319-16.39-18.476-10.529l-2.8,1.618c-10.154,5.864-18.39,20.126-18.356,31.791l.024,8.643,7.851-4.531-.024-8.636C113.28,52.358,118,44.176,123.83,40.812Z" transform="translate(-91.178 -24.688)"/><g transform="translate(30.831 45.292)"><g transform="translate(0 0)"><path class="g" d="M31.54,3.192Zm0,0q1.622,0,1.622,1.518V6.36a1.462,1.462,0,0,1-.444,1.226,1.546,1.546,0,0,1-.974.344H29.994V3.192ZM23.61,19.785a2.423,2.423,0,0,0,2.458,2.455,2.333,2.333,0,0,0,1.722-.709,2.445,2.445,0,0,0-1.722-4.18,2.387,2.387,0,0,0-1.749.709A2.36,2.36,0,0,0,23.61,19.785ZM28.424,13.1Zm-4.6-11.552A2.507,2.507,0,0,1,24.3.771a2.44,2.44,0,0,1,.723-.554,1.924,1.924,0,0,1,.9-.217,2.155,2.155,0,0,1,.937.217,3.007,3.007,0,0,1,.813.554,2.646,2.646,0,0,1,.554.775,2.015,2.015,0,0,1,.2.885V13.1a7.165,7.165,0,0,1,1.9,1.036,7.414,7.414,0,0,1,1.494,1.532,6.847,6.847,0,0,1,.974,1.925,7.2,7.2,0,0,1-.213,4.979,7.094,7.094,0,0,1-1.532,2.255,7.371,7.371,0,0,1-2.269,1.518,7.114,7.114,0,0,1-5.523,0,7.356,7.356,0,0,1-2.266-1.518,7.094,7.094,0,0,1-1.532-2.255,6.952,6.952,0,0,1-.558-2.786,6.848,6.848,0,0,1,.355-2.217,7.142,7.142,0,0,1,2.5-3.457,7.345,7.345,0,0,1,1.911-1.04V2.431a2.444,2.444,0,0,1,.165-.885Z" transform="translate(-18.9 0)"/></g></g></g></svg>