<svg xmlns="http://www.w3.org/2000/svg" width="32.207" height="32.199" viewBox="0 0 32.207 32.199"><defs><style>.a{fill:#b8b8b8;}</style></defs><g transform="translate(-64 -64)"><path class="a" d="M416.144,913.6h0Zm0-1.725a.578.578,0,0,0-.144,0h.287a.371.371,0,0,0-.115,0Z" transform="translate(-339.35 -817.405)"/><path class="a" d="M176,240m.862,0h17.824a.762.762,0,0,1,.862.862h0a.762.762,0,0,1-.862.862H176.862a.762.762,0,0,1-.862-.862h0A.762.762,0,0,1,176.862,240Z" transform="translate(-107.975 -169.675)"/><path class="a" d="M176,400m.862,0h17.824a.762.762,0,0,1,.862.862h0a.762.762,0,0,1-.862.862H176.862a.762.762,0,0,1-.862-.862h0A.762.762,0,0,1,176.862,400Z" transform="translate(-107.975 -323.925)"/><path class="a" d="M176,576m.862,0h8.625a.762.762,0,0,1,.862.862h0a.762.762,0,0,1-.862.862h-8.625a.762.762,0,0,1-.862-.862h0A.762.762,0,0,1,176.862,576Z" transform="translate(-107.975 -493.601)"/><path class="a" d="M589.157,588.186l-3.45-3.45a5.75,5.75,0,1,0-.811.811l3.45,3.45a.577.577,0,0,0,.816-.816Zm-12.483-7.067a4.6,4.6,0,1,1,4.6,4.6A4.6,4.6,0,0,1,576.674,581.12Z" transform="translate(-493.125 -492.971)"/><path class="a" d="M91.6,66.3V80.387a.862.862,0,0,1-1.725,0V66.3a.575.575,0,0,0-.575-.575h-23a.575.575,0,0,0-.575.575V93.9a.575.575,0,0,0,.575.575H80.387a.862.862,0,0,1,0,1.725H66.3A2.3,2.3,0,0,1,64,93.9V66.3A2.3,2.3,0,0,1,66.3,64h23A2.3,2.3,0,0,1,91.6,66.3Z"/></g></svg>