<svg xmlns="http://www.w3.org/2000/svg" width="26.672" height="11.736" viewBox="0 0 26.672 11.736"><defs><style>.a{fill:#ee502f;}</style></defs><path class="a" d="M6.4,286.72H20.8a5.868,5.868,0,1,1,0,11.736H0v-5.334A6.42,6.42,0,0,1,6.4,286.72Zm3.467,9.068v-6.081h-.8v4.641l-2.934-4.641h-.8v6.081h.8v-4.641l2.934,4.641Zm4.748-2.827v-.64H12.109v-1.974h2.881v-.64H11.309v6.081h3.734v-.64H12.109v-2.187h2.507Zm2.614.747-.907-3.947h-.907l1.44,6.081H17.6l1.227-4.214.107-.533.107.533,1.227,4.214h.747l1.494-6.081H21.6l-.853,3.947-.107.8-.16-.8-1.067-3.947h-.8l-1.067,3.947-.16.8-.16-.8Z" transform="translate(0 -286.72)"/></svg>