<svg xmlns="http://www.w3.org/2000/svg" xmlns:xlink="http://www.w3.org/1999/xlink" width="116.812" height="116.812" viewBox="0 0 116.812 116.812"><defs><style>.a,.c,.d,.e,.f,.g{fill-rule:evenodd;}.a{fill:url(#a);}.b{fill:#8bb2ff;}.c{fill:url(#b);}.d{fill:url(#c);}.e{fill:#94baff;}.f{fill:url(#d);}.g{fill:#f6f9ff;}.h,.l{fill:none;}.h{stroke:#75a1f5;stroke-width:3px;}.i{fill:#75a1f5;}.j{fill:#ffa3a3;}.k{stroke:none;}</style><linearGradient id="a" x1="0.5" x2="0.51" y2="1" gradientUnits="objectBoundingBox"><stop offset="0" stop-color="#fff" stop-opacity="0"/><stop offset="1" stop-color="#d9e8ff"/></linearGradient><linearGradient id="b" x1="0.022" y1="0.014" x2="1" y2="0.989" gradientUnits="objectBoundingBox"><stop offset="0" stop-color="#e3ebff"/><stop offset="0.484" stop-color="#f5f9ff"/><stop offset="0.974" stop-color="#7aa7ff"/></linearGradient><linearGradient id="c" y1="0.5" x2="1" y2="0.5" gradientUnits="objectBoundingBox"><stop offset="0" stop-color="#94baff"/><stop offset="1" stop-color="#94baff" stop-opacity="0"/></linearGradient><linearGradient id="d" x1="0.015" x2="1.018" xlink:href="#c"/></defs><g transform="translate(-156 -234.551)"><g transform="translate(154.673 234.551)"><path class="a" d="M62.926,0a58.406,58.406,0,1,0,58.406,58.406A58.408,58.408,0,0,0,62.926,0Z" transform="translate(-3.193)"/><path class="b" d="M184.971,320.348a1.614,1.614,0,1,0,.631.127A1.6,1.6,0,0,0,184.971,320.348Zm0-2.348a3.964,3.964,0,1,1-1.546.313A3.926,3.926,0,0,1,184.971,318Z" transform="translate(-127.877 -224.668)"/><path class="c" d="M85.87,136.148h61.341a5.868,5.868,0,0,0,5.87-5.87V44.87a5.868,5.868,0,0,0-5.87-5.87H85.87A5.868,5.868,0,0,0,80,44.87v85.408A5.868,5.868,0,0,0,85.87,136.148Z" transform="translate(-56.52 -27.554)"/><path class="d" d="M141.761,118.522h38.448a1.762,1.762,0,0,0,1.761-1.761h0A1.762,1.762,0,0,0,180.209,115H141.761A1.762,1.762,0,0,0,140,116.761h0A1.762,1.762,0,0,0,141.761,118.522Z" transform="translate(-106.541 -87.411)"/><path class="e" d="M141.761,156.522h20.251a1.762,1.762,0,0,0,1.761-1.761h0A1.762,1.762,0,0,0,162.012,153H141.761A1.762,1.762,0,0,0,140,154.761h0A1.762,1.762,0,0,0,141.761,156.522Z" transform="translate(-106.541 -114.258)"/><path class="f" d="M141.761,194.522h46.373a1.762,1.762,0,0,0,1.761-1.761h0A1.762,1.762,0,0,0,188.134,191H141.761A1.762,1.762,0,0,0,140,192.761h0A1.762,1.762,0,0,0,141.761,194.522Z" transform="translate(-106.541 -141.105)"/><path class="e" d="M141.761,232.522h36.394a1.762,1.762,0,0,0,1.761-1.761h0A1.762,1.762,0,0,0,178.155,229H141.761A1.762,1.762,0,0,0,140,230.761h0A1.762,1.762,0,0,0,141.761,232.522Z" transform="translate(-106.541 -167.952)"/><path class="e" d="M141.761,270.522h36.394a1.762,1.762,0,0,0,1.761-1.761h0A1.762,1.762,0,0,0,178.155,267H141.761A1.762,1.762,0,0,0,140,268.761h0A1.762,1.762,0,0,0,141.761,270.522Z" transform="translate(-106.541 -194.799)"/><path class="e" d="M141.761,308.522h23.48A1.762,1.762,0,0,0,167,306.761h0A1.762,1.762,0,0,0,165.241,305h-23.48A1.762,1.762,0,0,0,140,306.761h0A1.762,1.762,0,0,0,141.761,308.522Z" transform="translate(-106.541 -221.647)"/><g transform="translate(49.863 56.32)"><path class="g" d="M26.465-79.639a19.168,19.168,0,0,0,7.016,26.184A19.168,19.168,0,0,0,59.666-60.47,19.168,19.168,0,0,0,52.65-86.655,19.168,19.168,0,0,0,26.465-79.639Z" transform="translate(-19.785 93.335)"/></g></g><g class="h" transform="translate(208 294)"><circle class="k" cx="20" cy="20" r="20"/><circle class="l" cx="20" cy="20" r="18.5"/></g><rect class="i" width="16" height="3.085" rx="1.542" transform="translate(242.201 325.681) rotate(43)"/><rect class="j" width="16" height="3.085" rx="1.542" transform="translate(223.201 307.416) rotate(43)"/><rect class="j" width="16" height="3.085" rx="1.542" transform="translate(221.097 318.328) rotate(-43)"/></g></svg>