<svg xmlns="http://www.w3.org/2000/svg" width="12.266" height="12" viewBox="0 0 12.266 12"><defs><style>.a{fill:#b6b6b6;}</style></defs><path class="a" d="M182.1,105.944l.832.752-3.223,2.828-1.954-1.717.833-.752,1.122.987,2.391-2.1Zm-4.815-8.42a1.263,1.263,0,0,1,.838.309l3.256,2.9a1,1,0,0,1,.347.747v3.785h-1.185V101.48l-3.256-2.9h-5.434v9.852h5.135v1.056h-5.135a1.126,1.126,0,0,1-1.185-1.056V98.579a1.126,1.126,0,0,1,1.185-1.056h5.434Zm-2.268,3.681a.866.866,0,0,1,.392.093l3.148,1.6a.668.668,0,0,1,0,1.222l-3.148,1.6a.875.875,0,0,1-.788,0,.693.693,0,0,1-.393-.608v-3.2A.751.751,0,0,1,175.018,101.2Zm.4,1.31v1.992l1.956-1-1.956-1Z" transform="translate(-170.667 -97.524)"/></svg>